<?xml version="1.0" encoding="UTF-8" standalone="no"?>
<!-- Created with Inkscape (http://www.inkscape.org/) -->

<svg
   xmlns:dc="http://purl.org/dc/elements/1.1/"
   xmlns:cc="http://creativecommons.org/ns#"
   xmlns:rdf="http://www.w3.org/1999/02/22-rdf-syntax-ns#"
   xmlns:svg="http://www.w3.org/2000/svg"
   xmlns="http://www.w3.org/2000/svg"
   xmlns:sodipodi="http://sodipodi.sourceforge.net/DTD/sodipodi-0.dtd"
   xmlns:inkscape="http://www.inkscape.org/namespaces/inkscape"
   width="320mm"
   height="180mm"
   viewBox="0 0 320 180"
   version="1.1"
   id="svg1265"
   inkscape:version="0.92.1 r15371"
   sodipodi:docname="data.svg">
  <defs
     id="defs1259" />
  <sodipodi:namedview
     id="base"
     pagecolor="#ffffff"
     bordercolor="#666666"
     borderopacity="1.0"
     inkscape:pageopacity="0.0"
     inkscape:pageshadow="2"
     inkscape:zoom="0.98994949"
     inkscape:cx="541.6714"
     inkscape:cy="316.17073"
     inkscape:document-units="mm"
     inkscape:current-layer="layer1"
     showgrid="false"
     inkscape:window-width="1822"
     inkscape:window-height="1046"
     inkscape:window-x="87"
     inkscape:window-y="-11"
     inkscape:window-maximized="1" />
  <metadata
     id="metadata1262">
    <rdf:RDF>
      <cc:Work
         rdf:about="">
        <dc:format>image/svg+xml</dc:format>
        <dc:type
           rdf:resource="http://purl.org/dc/dcmitype/StillImage" />
        <dc:title></dc:title>
      </cc:Work>
    </rdf:RDF>
  </metadata>
  <g
     inkscape:label="Calque 1"
     inkscape:groupmode="layer"
     id="layer1"
     transform="translate(0,-117)">
    <path
       style="font-style:normal;font-weight:normal;font-size:17.33333397px;line-height:1.25;font-family:sans-serif;text-align:center;letter-spacing:0px;word-spacing:0px;text-anchor:middle;fill:#000000;fill-opacity:1;stroke:none;stroke-width:1.43103278"
       d="M 661.89258 50.486328 L 649.97852 57.164062 L 651.41992 60.636719 L 663.92188 55.828125 L 661.89258 50.486328 z M 888.84375 50.486328 L 876.93164 57.164062 L 878.37305 60.636719 L 890.875 55.828125 L 888.84375 50.486328 z M 937.26172 50.486328 L 925.34766 57.164062 L 926.78906 60.636719 L 939.29102 55.828125 L 937.26172 50.486328 z M 830.44336 51.714844 C 827.9858 51.714844 826.11547 53.370684 825.79492 55.667969 C 825.47437 58.072104 827.02348 59.996094 829.58789 59.996094 C 832.04545 59.996094 833.91578 58.339562 834.23633 56.095703 C 834.55688 53.638143 833.0612 51.714844 830.44336 51.714844 z M 398.05469 54.064453 L 391.26953 54.759766 L 385.71289 94.294922 L 392.44531 94.294922 L 394.68945 78.107422 C 396.77304 74.10053 399.39043 70.839844 402.27539 70.839844 C 403.87815 70.839844 404.89225 71.749445 404.46484 75.115234 L 401.74023 94.294922 L 408.47266 94.294922 L 411.35742 73.992188 C 412.10537 68.542815 409.54195 65.230469 404.78711 65.230469 C 401.04734 65.230469 397.84082 67.582739 395.65039 71.001953 L 398.05469 54.064453 z M 858.45703 54.064453 L 856.42578 68.330078 C 854.92988 66.513621 852.68643 65.230469 849.74805 65.230469 C 839.81096 65.230469 836.23242 76.236575 836.23242 83.769531 C 836.23242 90.71481 839.2241 95.095703 845.1543 95.095703 C 848.94749 95.095703 851.72513 92.905184 853.64844 89.966797 L 853.5957 94.294922 L 859.52539 94.294922 L 865.08203 54.759766 L 858.45703 54.064453 z M 241.06055 57.376953 L 235.87695 94.294922 L 242.87695 94.294922 L 244.69336 81.419922 L 249.01953 81.419922 C 260.93336 81.419922 265.10156 74.206878 265.10156 67.421875 C 265.10156 60.636872 260.13316 57.376953 251.79883 57.376953 L 241.06055 57.376953 z M 247.31055 62.560547 L 251.15625 62.560547 C 255.37684 62.560547 257.83594 63.948425 257.83594 67.634766 C 257.83594 71.588232 256.12635 76.130859 249.07422 76.130859 L 245.38672 76.130859 L 247.31055 62.560547 z M 281.04688 65.230469 C 269.56045 65.230469 265.82031 75.70211 265.82031 83.181641 C 265.82031 90.554321 269.87996 95.095703 277.19922 95.095703 C 288.73907 95.095703 292.42578 84.464477 292.42578 77.091797 C 292.42578 69.825967 288.36613 65.230469 281.04688 65.230469 z M 375.68555 65.230469 C 364.67995 65.230469 360.51172 75.80896 360.51172 83.181641 C 360.51172 90.554321 364.68017 95.095703 371.89258 95.095703 C 375.36522 95.095703 378.41065 93.97478 381.24219 91.998047 L 378.67773 87.455078 C 376.4873 88.790709 374.83106 89.539062 372.64062 89.539062 C 369.54196 89.539062 367.61914 87.937509 367.61914 83.556641 C 367.61914 78.267544 369.32725 70.626953 375.73828 70.626953 C 377.71501 70.626953 379.26569 71.162297 380.92188 72.658203 L 384.33984 68.597656 C 381.98913 66.300372 379.05134 65.230469 375.68555 65.230469 z M 431.99219 65.230469 C 420.45234 65.230469 416.28516 76.076751 416.28516 84.037109 C 416.28516 90.715262 419.38287 95.095703 425.41992 95.095703 C 428.94599 95.095703 431.72501 93.118646 433.80859 90.287109 C 434.4497 93.332347 436.63905 94.66773 439.63086 94.988281 L 441.55469 90.501953 C 440.53961 90.074551 439.95117 89.540137 439.95117 88.097656 C 439.95117 87.777105 440.00517 87.402702 440.05859 86.921875 L 442.89062 67.955078 C 439.09743 65.978345 435.57168 65.230469 431.99219 65.230469 z M 462.51367 65.230469 C 450.97382 65.230469 446.75391 75.916476 446.75391 84.037109 C 446.75391 90.715262 449.85231 95.095703 455.83594 95.095703 C 459.20173 95.095703 462.03351 93.173189 463.36914 91.410156 L 461.33789 106.04883 L 468.17773 105.30078 L 473.41211 67.955078 C 469.61892 65.978345 466.09316 65.230469 462.51367 65.230469 z M 523.23633 65.230469 C 511.85676 65.230469 507.84961 75.648565 507.84961 83.341797 C 507.84961 90.500777 511.80286 95.095703 519.49609 95.095703 C 523.60984 95.095703 527.13571 93.653325 530.23438 91.462891 L 527.61719 87.189453 C 525.05278 89.005911 522.80855 89.806641 520.24414 89.806641 C 517.14548 89.806641 514.90177 88.311247 514.79492 83.876953 C 524.09091 82.968724 533.01172 80.671296 533.01172 72.710938 C 533.01172 68.704046 529.70078 65.230469 523.23633 65.230469 z M 564.71875 65.230469 C 553.1789 65.230469 549.01367 76.076751 549.01367 84.037109 C 549.01367 90.715262 552.11139 95.095703 558.14844 95.095703 C 561.6745 95.095703 564.45353 93.118646 566.53711 90.287109 C 567.17821 93.332347 569.36756 94.66773 572.35938 94.988281 L 574.2832 90.501953 C 573.26812 90.074551 572.67969 89.540137 572.67969 88.097656 C 572.67969 87.777105 572.73368 87.402702 572.78711 86.921875 L 575.61914 67.955078 C 571.82595 65.978345 568.29824 65.230469 564.71875 65.230469 z M 598.82227 65.230469 C 594.8688 65.230469 591.60864 67.634663 589.09766 71.267578 L 589.36523 66.033203 L 583.54297 66.033203 L 579.58789 94.294922 L 586.32031 94.294922 L 588.56445 78.107422 C 590.70146 74.10053 593.26486 70.839844 596.04297 70.839844 C 597.69915 70.839844 598.82262 71.749445 598.3418 75.115234 L 595.61523 94.294922 L 602.34766 94.294922 L 605.17969 74.099609 C 605.98107 68.543386 603.41683 65.230469 598.82227 65.230469 z M 629.39453 65.230469 C 625.44106 65.230469 622.18286 67.634663 619.67188 71.267578 L 619.93945 66.033203 L 614.11523 66.033203 L 610.16211 94.294922 L 616.89453 94.294922 L 619.13672 78.107422 C 621.27373 74.10053 623.83908 70.839844 626.61719 70.839844 C 628.27337 70.839844 629.39489 71.749445 628.91406 75.115234 L 626.18945 94.294922 L 632.92188 94.294922 L 635.75195 74.099609 C 636.55333 68.543386 633.9891 65.230469 629.39453 65.230469 z M 656.06836 65.230469 C 644.68879 65.230469 640.68164 75.648565 640.68164 83.341797 C 640.68164 90.500777 644.63489 95.095703 652.32812 95.095703 C 656.44187 95.095703 659.96774 93.653325 663.06641 91.462891 L 660.44922 87.189453 C 657.88481 89.005911 655.64058 89.806641 653.07617 89.806641 C 649.97751 89.806641 647.7338 88.311247 647.62695 83.876953 C 656.92294 82.968724 665.8457 80.671296 665.8457 72.710938 C 665.8457 68.704046 662.53281 65.230469 656.06836 65.230469 z M 684.3457 65.230469 C 672.96613 65.230469 668.95898 75.648565 668.95898 83.341797 C 668.95898 90.500777 672.91419 95.095703 680.60742 95.095703 C 684.72116 95.095703 688.24704 93.653325 691.3457 91.462891 L 688.72656 87.189453 C 686.16215 89.005911 683.91793 89.806641 681.35352 89.806641 C 678.25485 89.806641 676.01115 88.311247 675.9043 83.876953 C 685.20029 82.968724 694.12305 80.671296 694.12305 72.710938 C 694.12305 68.704046 690.81015 65.230469 684.3457 65.230469 z M 725.34961 65.230469 C 714.34401 65.230469 710.17578 75.80896 710.17578 83.181641 C 710.17578 90.554321 714.34424 95.095703 721.55664 95.095703 C 725.02928 95.095703 728.07471 93.97478 730.90625 91.998047 L 728.3418 87.455078 C 726.15136 88.790709 724.49512 89.539062 722.30469 89.539062 C 719.20602 89.539062 717.28125 87.937509 717.28125 83.556641 C 717.28125 78.267544 718.99132 70.626953 725.40234 70.626953 C 727.37908 70.626953 728.92976 71.162297 730.58594 72.658203 L 734.00391 68.597656 C 731.6532 66.300372 728.7154 65.230469 725.34961 65.230469 z M 750.08203 65.230469 C 738.59561 65.230469 734.85547 75.70211 734.85547 83.181641 C 734.85547 90.554321 738.91512 95.095703 746.23438 95.095703 C 757.77422 95.095703 761.46094 84.464477 761.46094 77.091797 C 761.46094 69.825967 757.40129 65.230469 750.08203 65.230469 z M 784.87109 65.230469 C 780.91763 65.230469 777.65942 67.634663 775.14844 71.267578 L 775.41406 66.033203 L 769.5918 66.033203 L 765.63867 94.294922 L 772.36914 94.294922 L 774.61328 78.107422 C 776.75029 74.10053 779.31369 70.839844 782.0918 70.839844 C 783.74798 70.839844 784.87145 71.749445 784.39062 75.115234 L 781.66602 94.294922 L 788.39648 94.294922 L 791.22852 74.099609 C 792.02989 68.543386 789.46566 65.230469 784.87109 65.230469 z M 808.39258 65.230469 C 800.8062 65.230469 797.01172 69.504588 797.01172 73.832031 C 797.01172 77.892348 799.25594 80.189521 804.38477 81.845703 C 808.87248 83.341609 810.1543 84.090125 810.1543 86.333984 C 810.1543 88.043591 808.71185 89.966797 804.86523 89.966797 C 801.65972 89.966797 799.09587 88.737642 797.11914 86.974609 L 793.59375 90.714844 C 795.89103 93.118979 799.73653 95.095703 804.70508 95.095703 C 812.18461 95.095703 816.99414 91.302436 816.99414 85.585938 C 816.99414 81.151644 814.37549 78.694554 809.35352 77.091797 C 805.23977 75.756166 803.79688 75.115286 803.79688 73.298828 C 803.79688 71.428945 805.45419 70.306641 808.39258 70.306641 C 810.74329 70.306641 813.09415 71.107609 815.17773 72.603516 L 818.27539 68.810547 C 815.76441 66.620113 812.45289 65.230469 808.39258 65.230469 z M 883.02148 65.230469 C 871.64191 65.230469 867.63477 75.648565 867.63477 83.341797 C 867.63477 90.500777 871.58802 95.095703 879.28125 95.095703 C 883.39499 95.095703 886.92087 93.653325 890.01953 91.462891 L 887.40234 87.189453 C 884.83793 89.005911 882.59371 89.806641 880.0293 89.806641 C 876.93063 89.806641 874.68693 88.311247 874.58008 83.876953 C 883.87607 82.968724 892.79883 80.671296 892.79883 72.710938 C 892.79883 68.704046 889.48594 65.230469 883.02148 65.230469 z M 931.4375 65.230469 C 920.05793 65.230469 916.05078 75.648565 916.05078 83.341797 C 916.05078 90.500777 920.00403 95.095703 927.69727 95.095703 C 931.81101 95.095703 935.33884 93.653325 938.4375 91.462891 L 935.81836 87.189453 C 933.25395 89.005911 931.00972 89.806641 928.44531 89.806641 C 925.34665 89.806641 923.10294 88.311247 922.99609 83.876953 C 932.29208 82.968724 941.21484 80.671296 941.21484 72.710938 C 941.21484 68.704046 937.90195 65.230469 931.4375 65.230469 z M 959.71484 65.230469 C 948.33527 65.230469 944.33008 75.648565 944.33008 83.341797 C 944.33008 90.500777 948.28333 95.095703 955.97656 95.095703 C 960.0903 95.095703 963.61618 93.653325 966.71484 91.462891 L 964.0957 87.189453 C 961.53129 89.005911 959.28902 89.806641 956.72461 89.806641 C 953.62595 89.806641 951.38224 88.311247 951.27539 83.876953 C 960.57138 82.968724 969.49219 80.671296 969.49219 72.710938 C 969.49219 68.704046 966.1793 65.230469 959.71484 65.230469 z M 344.65039 65.285156 C 341.60515 65.285156 338.55946 67.421414 336.5293 71.535156 L 336.74414 66.033203 L 330.91992 66.033203 L 326.9668 94.294922 L 333.69727 94.294922 L 335.67578 80.349609 C 337.43881 75.327639 339.57481 71.962891 343.1543 71.962891 C 344.06253 71.962891 344.65106 72.069502 345.50586 72.283203 L 347.48242 65.712891 C 346.57419 65.445765 345.7189 65.285156 344.65039 65.285156 z M 913.65039 65.285156 C 910.60515 65.285156 907.55946 67.421414 905.5293 71.535156 L 905.74219 66.033203 L 899.91992 66.033203 L 895.9668 94.294922 L 902.69727 94.294922 L 904.67383 80.349609 C 906.43686 75.327639 908.57481 71.962891 912.1543 71.962891 C 913.06253 71.962891 913.6491 72.069502 914.50391 72.283203 L 916.48047 65.712891 C 915.57224 65.445765 914.7189 65.285156 913.65039 65.285156 z M 300.28906 66.033203 L 297.45703 86.173828 C 296.70908 91.676626 299.00525 95.095703 304.1875 95.095703 C 307.92727 95.095703 310.81323 92.958848 313.32422 89.646484 L 313.05664 94.294922 L 318.88086 94.294922 L 322.83398 66.033203 L 316.10156 66.033203 L 313.53711 84.144531 C 311.66723 86.976068 309.37117 89.699219 306.64648 89.699219 C 304.72318 89.699219 303.86683 88.685411 304.34766 85.373047 L 307.01953 66.033203 L 300.28906 66.033203 z M 481.22461 66.033203 L 478.39258 86.173828 C 477.64463 91.676626 479.94275 95.095703 485.125 95.095703 C 488.86477 95.095703 491.74878 92.958848 494.25977 89.646484 L 493.99219 94.294922 L 499.81641 94.294922 L 503.76953 66.033203 L 497.03906 66.033203 L 494.47461 84.144531 C 492.60473 86.976068 490.30672 89.699219 487.58203 89.699219 C 485.65872 89.699219 484.80433 88.685411 485.28516 85.373047 L 487.95508 66.033203 L 481.22461 66.033203 z M 825.20703 66.033203 L 821.25391 94.294922 L 827.98633 94.294922 L 831.93945 66.033203 L 825.20703 66.033203 z M 522.75586 70.09375 C 525.3737 70.09375 526.06836 71.749045 526.06836 73.03125 C 526.06836 76.557315 522.64888 78.693453 515.0625 79.441406 C 515.81045 74.846837 517.94759 70.09375 522.75586 70.09375 z M 655.58789 70.09375 C 658.20573 70.09375 658.90039 71.749045 658.90039 73.03125 C 658.90039 76.557315 655.48091 78.693453 647.89453 79.441406 C 648.64248 74.846837 650.77962 70.09375 655.58789 70.09375 z M 683.86523 70.09375 C 686.48307 70.09375 687.17773 71.749045 687.17773 73.03125 C 687.17773 76.557315 683.75826 78.693453 676.17188 79.441406 C 676.91983 74.846837 679.05696 70.09375 683.86523 70.09375 z M 882.54102 70.09375 C 885.15885 70.09375 885.85352 71.749045 885.85352 73.03125 C 885.85352 76.557315 882.43404 78.693453 874.84766 79.441406 C 875.59561 74.846837 877.73275 70.09375 882.54102 70.09375 z M 930.95703 70.09375 C 933.57487 70.09375 934.26953 71.749045 934.26953 73.03125 C 934.26953 76.557315 930.85005 78.693453 923.26367 79.441406 C 924.01162 74.846837 926.14876 70.09375 930.95703 70.09375 z M 959.23438 70.09375 C 961.85221 70.09375 962.54688 71.749045 962.54688 73.03125 C 962.54688 76.557315 959.1274 78.693453 951.54102 79.441406 C 952.28897 74.846837 954.42611 70.09375 959.23438 70.09375 z M 431.88477 70.253906 C 433.48752 70.253906 434.44953 70.467701 435.78516 71.001953 L 433.64844 85.425781 C 431.72513 88.097042 429.80131 89.914062 427.34375 89.914062 C 424.88619 89.914062 423.33594 88.311127 423.33594 84.037109 C 423.33594 78.160335 425.63401 70.253906 431.88477 70.253906 z M 462.40625 70.253906 C 464.00901 70.253906 464.97101 70.467701 466.30664 71.001953 L 464.16992 85.425781 C 462.24661 88.097042 460.37622 89.914062 457.86523 89.914062 C 455.40767 89.914062 453.80469 88.311127 453.80469 84.037109 C 453.80469 78.160335 456.1555 70.253906 462.40625 70.253906 z M 564.61328 70.253906 C 566.21604 70.253906 567.17804 70.467701 568.51367 71.001953 L 566.375 85.425781 C 564.45169 88.097042 562.52983 89.914062 560.07227 89.914062 C 557.61471 89.914062 556.06445 88.311127 556.06445 84.037109 C 556.06445 78.160335 558.36253 70.253906 564.61328 70.253906 z M 851.03125 70.359375 C 853.16826 70.359375 854.55638 71.321643 855.78516 73.03125 L 854.23633 84.144531 C 852.15274 87.456895 850.01582 89.914062 847.13086 89.914062 C 844.83357 89.914062 843.2832 88.311818 843.2832 83.984375 C 843.2832 78.855554 844.9942 70.359375 851.03125 70.359375 z M 280.67188 70.414062 C 283.82396 70.414062 285.48116 72.282623 285.42773 76.556641 C 285.42773 81.364911 283.93182 89.914062 277.57422 89.914062 C 274.42213 89.914062 272.76562 87.990815 272.76562 83.716797 C 272.76562 78.908527 274.31427 70.414062 280.67188 70.414062 z M 749.70703 70.414062 C 752.85912 70.414062 754.51632 72.282623 754.46289 76.556641 C 754.46289 81.364911 752.96698 89.914062 746.60938 89.914062 C 743.45729 89.914062 741.80078 87.990815 741.80078 83.716797 C 741.80078 78.908527 743.34943 70.414062 749.70703 70.414062 z M 297.82422 471.07422 L 284.72461 478.41797 L 286.31055 482.23633 L 300.05664 476.94922 L 297.82422 471.07422 z M 564.01758 471.07422 L 550.91602 478.41797 L 552.50195 482.23633 L 566.24805 476.94922 L 564.01758 471.07422 z M 462.85352 474.89258 C 455.9215 474.89258 451.86721 478.94633 451.10352 484.58594 L 450.57617 488.16992 L 445.58203 488.16992 L 444.81836 493.57422 L 449.8125 493.57422 L 446.58008 516.77734 C 445.69889 522.94567 443.23212 524.76692 438.82617 526.5293 L 440.82422 532.05273 C 448.04997 529.23293 452.63127 526.1184 453.98242 516.60156 L 457.21289 493.57422 L 463.79297 493.57422 L 465.32031 488.16992 L 457.97656 488.16992 L 458.44727 485.05469 C 458.85849 482.05865 460.32802 480.58984 463.38281 480.58984 C 464.73397 480.58984 466.49543 480.88383 468.25781 482 L 470.90234 477.30078 C 468.72874 475.89088 466.26078 474.89258 462.85352 474.89258 z M 739.24414 484.79492 C 726.49627 484.79492 721.79688 495.95734 721.79688 504.88672 C 721.79688 511.99498 725.32069 516.75195 731.95898 516.75195 C 735.24876 516.75195 738.18578 514.93232 740.35938 512.40625 L 739.89062 515.8125 C 738.95069 522.56828 735.30842 523.68359 731.60742 523.68359 C 728.67013 523.68359 725.61577 522.6267 723.14844 521.2168 L 720.5625 526.44531 C 723.73478 528.38393 728.02346 529.67578 731.7832 529.67578 C 740.4776 529.67578 745.64839 525.68169 747.17578 515.10742 L 751.22852 487.79102 C 747.05755 485.61742 743.18012 484.79492 739.24414 484.79492 z M 772.9707 484.79492 C 760.28158 484.79492 755.70117 496.71951 755.70117 505.47266 C 755.70117 512.8159 759.1078 517.63281 765.74609 517.63281 C 769.62333 517.63281 772.67766 515.45924 774.96875 512.3457 C 775.6737 515.69422 778.08327 517.16315 781.37305 517.51562 L 783.48633 512.58203 C 782.37016 512.11206 781.72461 511.52364 781.72461 509.9375 C 781.72461 509.58502 781.78305 509.1752 781.8418 508.64648 L 784.95508 487.79102 C 780.78412 485.61742 776.90668 484.79492 772.9707 484.79492 z M 828.32617 484.79492 C 815.81329 484.79492 811.40625 496.24957 811.40625 504.70898 C 811.40625 512.58094 815.75348 517.63281 824.21289 517.63281 C 828.73633 517.63281 832.61422 516.04725 836.02148 513.63867 L 833.14258 508.93945 C 830.32277 510.93681 827.85691 511.81836 825.03711 511.81836 C 821.62985 511.81836 819.16241 510.17279 819.04492 505.29688 C 829.26671 504.29819 839.07617 501.77267 839.07617 493.01953 C 839.07617 488.61359 835.43443 484.79492 828.32617 484.79492 z M 855.95312 484.79492 C 847.6112 484.79492 843.44141 489.49353 843.44141 494.25195 C 843.44141 498.71664 845.90922 501.24333 851.54883 503.06445 C 856.48349 504.70934 857.89258 505.53267 857.89258 508 C 857.89258 509.87987 856.30588 511.99414 852.07617 511.99414 C 848.55142 511.99414 845.73219 510.64369 843.55859 508.70508 L 839.68164 512.81641 C 842.20772 515.45997 846.43702 517.63281 851.90039 517.63281 C 860.12482 517.63281 865.41211 513.46355 865.41211 507.17773 C 865.41211 502.30182 862.53384 499.59832 857.01172 497.83594 C 852.48828 496.36729 850.90234 495.66338 850.90234 493.66602 C 850.90234 491.60991 852.7221 490.375 855.95312 490.375 C 858.53795 490.375 861.12297 491.25746 863.41406 492.90234 L 866.82227 488.73047 C 864.06121 486.32189 860.41782 484.79492 855.95312 484.79492 z M 808.76562 484.85352 C 805.41711 484.85352 802.06828 487.20313 799.83594 491.72656 L 800.07227 485.67578 L 793.66797 485.67578 L 789.32227 516.75195 L 796.72266 516.75195 L 798.89648 501.41992 C 800.8351 495.8978 803.18512 492.19727 807.12109 492.19727 C 808.11977 492.19727 808.7671 492.31384 809.70703 492.54883 L 811.87891 485.32422 C 810.88023 485.03049 809.94054 484.85352 808.76562 484.85352 z M 291.41992 487.28711 C 278.90704 487.28711 274.50195 498.74371 274.50195 507.20312 C 274.50195 515.07508 278.84918 520.12695 287.30859 520.12695 C 291.83203 520.12695 295.70992 518.5414 299.11719 516.13281 L 296.23828 511.43164 C 293.41848 513.429 290.95066 514.31055 288.13086 514.31055 C 284.7236 514.31055 282.25616 512.66693 282.13867 507.79102 C 292.36046 506.79233 302.17188 504.26486 302.17188 495.51172 C 302.17188 491.10577 298.52818 487.28711 291.41992 487.28711 z M 319.04883 487.28711 C 310.70691 487.28711 306.53516 491.98767 306.53516 496.74609 C 306.53516 501.21078 309.00297 503.73747 314.64258 505.55859 C 319.57724 507.20348 320.98828 508.02486 320.98828 510.49219 C 320.98828 512.37206 319.40158 514.48633 315.17188 514.48633 C 311.64712 514.48633 308.8279 513.13588 306.6543 511.19727 L 302.77539 515.31055 C 305.30147 517.95411 309.53272 520.12695 314.99609 520.12695 C 323.22052 520.12695 328.50781 515.95574 328.50781 509.66992 C 328.50781 504.79401 325.62759 502.09246 320.10547 500.33008 C 315.58203 498.86143 313.99609 498.15556 313.99609 496.1582 C 313.99609 494.1021 315.8178 492.86914 319.04883 492.86914 C 321.63365 492.86914 324.21867 493.74965 326.50977 495.39453 L 329.91602 491.22461 C 327.15496 488.81603 323.51352 487.28711 319.04883 487.28711 z M 350.05273 487.28711 C 337.53985 487.28711 333.13281 498.74371 333.13281 507.20312 C 333.13281 515.07508 337.48004 520.12695 345.93945 520.12695 C 350.46289 520.12695 354.34078 518.5414 357.74805 516.13281 L 354.86914 511.43164 C 352.04934 513.429 349.58152 514.31055 346.76172 514.31055 C 343.35445 514.31055 340.88702 512.66693 340.76953 507.79102 C 350.99132 506.79233 360.80273 504.26486 360.80273 495.51172 C 360.80273 491.10577 357.16099 487.28711 350.05273 487.28711 z M 381.43945 487.28711 C 368.75033 487.28711 364.16797 499.21365 364.16797 507.9668 C 364.16797 515.31004 367.57655 520.12695 374.21484 520.12695 C 378.09208 520.12695 381.14641 517.95338 383.4375 514.83984 C 384.14245 518.18836 386.55007 519.65729 389.83984 520.00977 L 391.95508 515.07422 C 390.83891 514.60425 390.19336 514.01778 390.19336 512.43164 C 390.19336 512.07917 390.2518 511.66739 390.31055 511.13867 L 393.42383 490.2832 C 389.25287 488.1096 385.37543 487.28711 381.43945 487.28711 z M 481.65625 487.28711 C 469.14337 487.28711 464.73828 498.74371 464.73828 507.20312 C 464.73828 515.07508 469.08551 520.12695 477.54492 520.12695 C 482.06836 520.12695 485.9443 518.5414 489.35156 516.13281 L 486.47461 511.43164 C 483.6548 513.429 481.18699 514.31055 478.36719 514.31055 C 474.95992 514.31055 472.49249 512.66693 472.375 507.79102 C 482.59679 506.79233 492.40625 504.26486 492.40625 495.51172 C 492.40625 491.10577 488.76451 487.28711 481.65625 487.28711 z M 557.61328 487.28711 C 545.1004 487.28711 540.69531 498.74371 540.69531 507.20312 C 540.69531 515.07508 545.04254 520.12695 553.50195 520.12695 C 558.02539 520.12695 561.90133 518.5414 565.30859 516.13281 L 562.42969 511.43164 C 559.60988 513.429 557.14402 514.31055 554.32422 514.31055 C 550.91695 514.31055 548.44952 512.66693 548.33203 507.79102 C 558.55382 506.79233 568.36328 504.26486 568.36328 495.51172 C 568.36328 491.10577 564.72154 487.28711 557.61328 487.28711 z M 271.86133 487.3457 C 268.51281 487.3457 265.16399 489.69727 262.93164 494.2207 L 263.16602 488.16992 L 256.76367 488.16992 L 252.41602 519.24609 L 259.81836 519.24609 L 261.99219 503.91211 C 263.9308 498.38999 266.28082 494.68945 270.2168 494.68945 C 271.21548 494.68945 271.86085 494.80799 272.80078 495.04297 L 274.97461 487.81641 C 273.97593 487.52268 273.03625 487.3457 271.86133 487.3457 z M 515.33594 487.3457 C 511.98742 487.3457 508.6386 489.69727 506.40625 494.2207 L 506.64062 488.16992 L 500.23828 488.16992 L 495.89062 519.24609 L 503.29297 519.24609 L 505.4668 503.91211 C 507.40541 498.38999 509.75543 494.68945 513.69141 494.68945 C 514.69009 494.68945 515.33546 494.80799 516.27539 495.04297 L 518.44922 487.81641 C 517.45054 487.52268 516.51086 487.3457 515.33594 487.3457 z M 538.05273 487.3457 C 534.70422 487.3457 531.35735 489.69727 529.125 494.2207 L 529.35938 488.16992 L 522.95508 488.16992 L 518.60938 519.24609 L 526.01172 519.24609 L 528.18359 503.91211 C 530.12221 498.38999 532.47223 494.68945 536.4082 494.68945 C 537.40688 494.68945 538.05421 494.80799 538.99414 495.04297 L 541.16797 487.81641 C 540.16929 487.52268 539.22765 487.3457 538.05273 487.3457 z M 401.84375 488.16992 L 398.72852 510.31641 C 397.90607 516.36724 400.4325 520.12695 406.13086 520.12695 C 410.24307 520.12695 413.41668 517.77701 416.17773 514.13477 L 415.88281 519.24609 L 422.28711 519.24609 L 426.63281 488.16992 L 419.23242 488.16992 L 416.41211 508.08398 C 414.356 511.19752 411.83003 514.19336 408.83398 514.19336 C 406.71913 514.19336 405.77988 513.07779 406.30859 509.43555 L 409.24414 488.16992 L 401.84375 488.16992 z M 827.79688 490.14062 C 830.67543 490.14062 831.43945 491.96119 831.43945 493.37109 C 831.43945 497.24833 827.67981 499.59943 819.33789 500.42188 C 820.16033 495.36973 822.50974 490.14063 827.79688 490.14062 z M 739.18555 490.31641 C 740.88918 490.31641 742.00596 490.55121 743.47461 491.13867 L 741.12305 506.06055 C 739.06694 508.88035 736.77684 511.05469 733.95703 511.05469 C 731.43096 511.05469 729.55078 509.40851 729.55078 504.76758 C 729.55078 498.30553 732.19478 490.31641 739.18555 490.31641 z M 772.85352 490.31641 C 774.61589 490.31641 775.67393 490.55121 777.14258 491.13867 L 774.79297 507 C 772.67812 509.9373 770.56364 511.93555 767.86133 511.93555 C 765.15902 511.93555 763.45508 510.17233 763.45508 505.47266 C 763.45508 499.0106 765.98024 490.31641 772.85352 490.31641 z M 290.89258 492.63281 C 293.77113 492.63281 294.53516 494.45533 294.53516 495.86523 C 294.53516 499.74247 290.77552 502.09162 282.43359 502.91406 C 283.25604 497.86191 285.60544 492.63281 290.89258 492.63281 z M 349.52344 492.63281 C 352.40199 492.63281 353.16602 494.45533 353.16602 495.86523 C 353.16602 499.74247 349.40638 502.09162 341.06445 502.91406 C 341.8869 497.86191 344.2363 492.63281 349.52344 492.63281 z M 481.12891 492.63281 C 484.00746 492.63281 484.76953 494.45533 484.76953 495.86523 C 484.76953 499.74247 481.00989 502.09162 472.66797 502.91406 C 473.49041 497.86191 475.84177 492.63281 481.12891 492.63281 z M 557.08398 492.63281 C 559.96253 492.63281 560.72656 494.45533 560.72656 495.86523 C 560.72656 499.74247 556.96692 502.09162 548.625 502.91406 C 549.44744 497.86191 551.79685 492.63281 557.08398 492.63281 z M 381.32227 492.81055 C 383.08464 492.81055 384.14268 493.04535 385.61133 493.63281 L 383.26172 509.49414 C 381.14687 512.43144 379.03044 514.42773 376.32812 514.42773 C 373.62581 514.42773 371.92383 512.66647 371.92383 507.9668 C 371.92383 501.50474 374.44899 492.81055 381.32227 492.81055 z "
       transform="matrix(0.26458333,0,0,0.26458333,0,117)"
       id="flowRoot6329-4-6-9" />
    <path
       style="color:#000000;font-style:normal;font-variant:normal;font-weight:normal;font-stretch:normal;font-size:medium;line-height:normal;font-family:sans-serif;font-variant-ligatures:normal;font-variant-position:normal;font-variant-caps:normal;font-variant-numeric:normal;font-variant-alternates:normal;font-feature-settings:normal;text-indent:0;text-align:start;text-decoration:none;text-decoration-line:none;text-decoration-style:solid;text-decoration-color:#000000;letter-spacing:normal;word-spacing:normal;text-transform:none;writing-mode:lr-tb;direction:ltr;text-orientation:mixed;dominant-baseline:auto;baseline-shift:baseline;text-anchor:start;white-space:normal;shape-padding:0;clip-rule:nonzero;display:inline;overflow:visible;visibility:visible;opacity:1;isolation:auto;mix-blend-mode:normal;color-interpolation:sRGB;color-interpolation-filters:linearRGB;solid-color:#000000;solid-opacity:1;vector-effect:none;fill:#000000;fill-opacity:1;fill-rule:nonzero;stroke:none;stroke-width:1.66715312;stroke-linecap:butt;stroke-linejoin:miter;stroke-miterlimit:4;stroke-dasharray:none;stroke-dashoffset:0;stroke-opacity:1;color-rendering:auto;image-rendering:auto;shape-rendering:auto;text-rendering:auto;enable-background:accumulate"
       d="M 32.708887,137.06384 V 278.43403 H 284.03516 V 137.06384 h -25.21938 l -0.52891,1.6658 h 24.0797 V 276.76543 H 34.374609 V 138.72964 h 25.493849 l 0.253006,-1.6658 z"
       id="path6158-2"
       inkscape:connector-curvature="0"
       sodipodi:nodetypes="ccccccccccccc" />
    <g
       id="g4524-6-9-6"
       transform="matrix(4.4611253,0,0,4.4611253,-95.287429,-286.7267)">
      <path
         style="color:#000000;font-style:normal;font-variant:normal;font-weight:normal;font-stretch:normal;font-size:medium;line-height:normal;font-family:sans-serif;font-variant-ligatures:normal;font-variant-position:normal;font-variant-caps:normal;font-variant-numeric:normal;font-variant-alternates:normal;font-feature-settings:normal;text-indent:0;text-align:start;text-decoration:none;text-decoration-line:none;text-decoration-style:solid;text-decoration-color:#000000;letter-spacing:normal;word-spacing:normal;text-transform:none;writing-mode:lr-tb;direction:ltr;text-orientation:mixed;dominant-baseline:auto;baseline-shift:baseline;text-anchor:start;white-space:normal;shape-padding:0;clip-rule:nonzero;display:inline;overflow:visible;visibility:visible;opacity:1;isolation:auto;mix-blend-mode:normal;color-interpolation:sRGB;color-interpolation-filters:linearRGB;solid-color:#000000;solid-opacity:1;vector-effect:none;fill:#000000;fill-opacity:1;fill-rule:nonzero;stroke:none;stroke-width:0.40000001;stroke-linecap:butt;stroke-linejoin:miter;stroke-miterlimit:4;stroke-dasharray:none;stroke-dashoffset:0;stroke-opacity:1;color-rendering:auto;image-rendering:auto;shape-rendering:auto;text-rendering:auto;enable-background:accumulate"
         d="m 43.570312,101.03906 -4.085937,4.08594 v 0.084 12.10547 h 12.306641 v -16.27539 z m 0.166016,0.40039 h 7.654297 v 15.47461 H 39.884766 v -11.62304 z"
         id="path4487-7-0-6-6-6-49-9-5-2"
         inkscape:connector-curvature="0" />
      <path
         style="color:#000000;font-style:normal;font-variant:normal;font-weight:normal;font-stretch:normal;font-size:medium;line-height:normal;font-family:sans-serif;font-variant-ligatures:normal;font-variant-position:normal;font-variant-caps:normal;font-variant-numeric:normal;font-variant-alternates:normal;font-feature-settings:normal;text-indent:0;text-align:start;text-decoration:none;text-decoration-line:none;text-decoration-style:solid;text-decoration-color:#000000;letter-spacing:normal;word-spacing:normal;text-transform:none;writing-mode:lr-tb;direction:ltr;text-orientation:mixed;dominant-baseline:auto;baseline-shift:baseline;text-anchor:start;white-space:normal;shape-padding:0;clip-rule:nonzero;display:inline;overflow:visible;visibility:visible;opacity:1;isolation:auto;mix-blend-mode:normal;color-interpolation:sRGB;color-interpolation-filters:linearRGB;solid-color:#000000;solid-opacity:1;vector-effect:none;fill:#000000;fill-opacity:1;fill-rule:nonzero;stroke:none;stroke-width:0.40000001;stroke-linecap:butt;stroke-linejoin:miter;stroke-miterlimit:4;stroke-dasharray:none;stroke-dashoffset:0;stroke-opacity:1;color-rendering:auto;image-rendering:auto;shape-rendering:auto;text-rendering:auto;enable-background:accumulate"
         d="m 43.453125,101.24023 v 3.76758 h -3.767578 v 0.40039 h 4.167969 v -4.16797 z"
         id="path4489-49-8-6-5-1-8-5-7-8"
         inkscape:connector-curvature="0" />
      <text
         id="text4493-5-5-5-9-7-7-6-4-4"
         y="111.26584"
         x="41.31628"
         style="font-style:normal;font-weight:normal;font-size:4.58611107px;line-height:1.25;font-family:sans-serif;letter-spacing:0px;word-spacing:0px;fill:#000000;fill-opacity:1;stroke:none;stroke-width:0.26458332"
         xml:space="preserve"><tspan
           style="font-style:normal;font-variant:normal;font-weight:500;font-stretch:normal;font-family:'Fira Sans';-inkscape-font-specification:'Fira Sans Medium';stroke-width:0.26458332"
           y="111.26584"
           x="41.31628"
           id="tspan4491-8-44-7-5-42-31-1-5-5"
           sodipodi:role="line">.shp</tspan></text>
    </g>
    <g
       id="g4524-6-9-6-6"
       transform="matrix(4.4611253,0,0,4.4611253,4.9835928,-287.38628)">
      <path
         style="color:#000000;font-style:normal;font-variant:normal;font-weight:normal;font-stretch:normal;font-size:medium;line-height:normal;font-family:sans-serif;font-variant-ligatures:normal;font-variant-position:normal;font-variant-caps:normal;font-variant-numeric:normal;font-variant-alternates:normal;font-feature-settings:normal;text-indent:0;text-align:start;text-decoration:none;text-decoration-line:none;text-decoration-style:solid;text-decoration-color:#000000;letter-spacing:normal;word-spacing:normal;text-transform:none;writing-mode:lr-tb;direction:ltr;text-orientation:mixed;dominant-baseline:auto;baseline-shift:baseline;text-anchor:start;white-space:normal;shape-padding:0;clip-rule:nonzero;display:inline;overflow:visible;visibility:visible;opacity:1;isolation:auto;mix-blend-mode:normal;color-interpolation:sRGB;color-interpolation-filters:linearRGB;solid-color:#000000;solid-opacity:1;vector-effect:none;fill:#000000;fill-opacity:1;fill-rule:nonzero;stroke:none;stroke-width:0.40000001;stroke-linecap:butt;stroke-linejoin:miter;stroke-miterlimit:4;stroke-dasharray:none;stroke-dashoffset:0;stroke-opacity:1;color-rendering:auto;image-rendering:auto;shape-rendering:auto;text-rendering:auto;enable-background:accumulate"
         d="m 43.570312,101.03906 -4.085937,4.08594 v 0.084 12.10547 h 12.306641 v -16.27539 z m 0.166016,0.40039 h 7.654297 v 15.47461 H 39.884766 v -11.62304 z"
         id="path4487-7-0-6-6-6-49-9-5-2-7"
         inkscape:connector-curvature="0" />
      <path
         style="color:#000000;font-style:normal;font-variant:normal;font-weight:normal;font-stretch:normal;font-size:medium;line-height:normal;font-family:sans-serif;font-variant-ligatures:normal;font-variant-position:normal;font-variant-caps:normal;font-variant-numeric:normal;font-variant-alternates:normal;font-feature-settings:normal;text-indent:0;text-align:start;text-decoration:none;text-decoration-line:none;text-decoration-style:solid;text-decoration-color:#000000;letter-spacing:normal;word-spacing:normal;text-transform:none;writing-mode:lr-tb;direction:ltr;text-orientation:mixed;dominant-baseline:auto;baseline-shift:baseline;text-anchor:start;white-space:normal;shape-padding:0;clip-rule:nonzero;display:inline;overflow:visible;visibility:visible;opacity:1;isolation:auto;mix-blend-mode:normal;color-interpolation:sRGB;color-interpolation-filters:linearRGB;solid-color:#000000;solid-opacity:1;vector-effect:none;fill:#000000;fill-opacity:1;fill-rule:nonzero;stroke:none;stroke-width:0.40000001;stroke-linecap:butt;stroke-linejoin:miter;stroke-miterlimit:4;stroke-dasharray:none;stroke-dashoffset:0;stroke-opacity:1;color-rendering:auto;image-rendering:auto;shape-rendering:auto;text-rendering:auto;enable-background:accumulate"
         d="m 43.453125,101.24023 v 3.76758 h -3.767578 v 0.40039 h 4.167969 v -4.16797 z"
         id="path4489-49-8-6-5-1-8-5-7-8-9"
         inkscape:connector-curvature="0" />
      <text
         id="text4493-5-5-5-9-7-7-6-4-4-2"
         y="111.26584"
         x="42.132874"
         style="font-style:normal;font-weight:normal;font-size:4.58611107px;line-height:1.25;font-family:sans-serif;letter-spacing:0px;word-spacing:0px;fill:#000000;fill-opacity:1;stroke:none;stroke-width:0.26458332"
         xml:space="preserve"><tspan
           style="font-style:normal;font-variant:normal;font-weight:500;font-stretch:normal;font-family:'Fira Sans';-inkscape-font-specification:'Fira Sans Medium';stroke-width:0.26458332"
           y="111.26584"
           x="42.132874"
           id="tspan4491-8-44-7-5-42-31-1-5-5-6"
           sodipodi:role="line">.txt</tspan></text>
    </g>
  </g>
</svg>
